<?xml version="1.0" standalone="no"?>
<!DOCTYPE svg PUBLIC "-//W3C//DTD SVG 20010904//EN"
 "http://www.w3.org/TR/2001/REC-SVG-20010904/DTD/svg10.dtd">
<svg version="1.0" xmlns="http://www.w3.org/2000/svg"
 width="425.000000pt" height="87.000000pt" viewBox="0 0 425.000000 87.000000"
 preserveAspectRatio="xMidYMid meet">

<g transform="translate(0.000000,87.000000) scale(0.100000,-0.100000)"
fill="#000000" stroke="none">
<path d="M2856 789 c4 -13 8 -138 8 -277 1 -239 2 -254 20 -268 24 -17 69 -18
98 -3 20 11 20 11 -3 23 -35 17 -41 71 -36 303 3 141 1 207 -7 218 -6 9 -28
18 -50 22 -37 6 -38 5 -30 -18z"/>
<path d="M1790 770 c-24 -24 -24 -29 -4 -58 17 -24 53 -29 72 -10 19 19 14 55
-10 72 -29 20 -34 20 -58 -4z"/>
<path d="M425 610 c-38 -15 -69 -59 -69 -95 0 -46 30 -85 91 -115 82 -41 103
-59 103 -84 0 -57 -75 -73 -148 -31 -35 20 -44 22 -49 10 -15 -41 29 -66 117
-67 66 -1 114 21 135 62 36 70 10 117 -95 170 -61 31 -81 46 -86 65 -16 62 68
87 126 38 31 -26 33 -26 46 -8 18 24 14 37 -17 52 -27 14 -123 16 -154 3z"/>
<path d="M784 601 c-116 -71 -126 -275 -17 -347 68 -45 161 -38 216 17 36 37
31 44 -16 24 -85 -35 -165 -4 -187 73 -17 61 -17 61 58 55 88 -7 137 12 157
62 13 30 13 39 1 69 -8 20 -28 42 -45 50 -42 22 -128 21 -167 -3z m115 -24 c6
-8 14 -28 17 -45 12 -60 -77 -108 -129 -69 -37 27 21 127 74 127 14 0 32 -6
38 -13z"/>
<path d="M1109 615 c-3 -2 -1 -49 3 -105 5 -55 5 -138 0 -185 -4 -47 -6 -88
-3 -90 10 -10 70 -4 78 7 4 7 8 72 8 143 0 97 4 136 14 152 33 48 104 52 122
6 5 -13 9 -84 9 -157 0 -136 5 -156 42 -156 29 0 38 34 38 150 0 125 14 173
54 192 34 15 73 -2 86 -38 6 -14 10 -83 10 -154 0 -142 3 -150 67 -150 32 0
82 29 52 30 -36 0 -43 27 -43 171 -1 130 -2 140 -24 161 -32 33 -127 33 -171
0 -30 -22 -31 -22 -50 -3 -39 39 -127 40 -182 0 -24 -17 -29 -18 -29 -5 0 24
-64 49 -81 31z"/>
<path d="M1775 589 c4 -17 7 -95 7 -173 -1 -166 6 -186 66 -186 39 0 97 29 60
30 -10 0 -25 11 -34 24 -13 20 -15 50 -13 167 3 129 1 143 -16 155 -10 8 -32
14 -48 14 -27 0 -28 -2 -22 -31z"/>
<path d="M2082 599 c-107 -53 -140 -208 -66 -307 34 -44 79 -65 139 -65 66 0
121 29 147 76 8 17 6 16 -31 -2 -48 -25 -118 -27 -150 -5 -50 36 -77 151 -50
221 6 15 20 38 31 51 37 39 113 25 156 -28 11 -13 14 -13 27 4 23 30 18 46
-20 62 -51 21 -132 18 -183 -7z"/>
<path d="M2483 601 c-62 -29 -97 -87 -101 -170 -7 -125 65 -203 187 -203 109
0 178 65 196 184 12 81 -32 165 -102 194 -46 20 -130 17 -180 -5z m155 -46
c38 -42 50 -108 34 -184 -21 -99 -67 -137 -130 -107 -45 22 -71 82 -72 163 0
105 35 163 101 163 30 0 43 -7 67 -35z"/>
<path d="M3159 597 c-33 -18 -51 -37 -72 -78 -25 -47 -28 -62 -24 -117 8 -110
76 -174 185 -175 68 0 108 18 150 68 82 100 64 248 -38 302 -59 31 -141 31
-201 0z m148 -22 c55 -38 70 -192 26 -267 -64 -110 -183 -36 -183 114 0 105
37 168 100 168 19 0 45 -7 57 -15z"/>
<path d="M3550 615 c-1 -3 -1 -89 -1 -192 l-1 -188 39 0 38 0 6 140 c3 77 9
148 13 157 21 45 99 63 129 30 14 -15 17 -42 17 -160 0 -134 1 -142 22 -156
28 -20 78 -20 104 -1 16 12 17 14 2 15 -41 0 -48 25 -48 171 0 137 -1 140 -26
166 -23 23 -31 25 -89 21 -47 -3 -73 -10 -95 -26 -16 -13 -30 -18 -30 -13 0
18 -31 41 -56 41 -13 0 -24 -2 -24 -5z"/>
</g>
</svg>
